<?xml version="1.0" encoding="UTF-8" standalone="no"?>
<!-- Created with Inkscape (http://www.inkscape.org/) -->

<svg
   xmlns:dc="http://purl.org/dc/elements/1.1/"
   xmlns:cc="http://creativecommons.org/ns#"
   xmlns:rdf="http://www.w3.org/1999/02/22-rdf-syntax-ns#"
   xmlns:svg="http://www.w3.org/2000/svg"
   xmlns="http://www.w3.org/2000/svg"
   xmlns:sodipodi="http://sodipodi.sourceforge.net/DTD/sodipodi-0.dtd"
   xmlns:inkscape="http://www.inkscape.org/namespaces/inkscape"
   version="1.1"
   id="svg2"
   xml:space="preserve"
   width="737.36798"
   height="538.84003"
   viewBox="0 0 737.36798 538.84003"
   sodipodi:docname="artlas_logo-white.svg"
   inkscape:version="0.92.1 r"><metadata
     id="metadata8"><rdf:RDF><cc:Work
         rdf:about=""><dc:format>image/svg+xml</dc:format><dc:type
           rdf:resource="http://purl.org/dc/dcmitype/StillImage" /><dc:title></dc:title></cc:Work></rdf:RDF></metadata><defs
     id="defs6"><clipPath
       clipPathUnits="userSpaceOnUse"
       id="clipPath18"><path
         d="M 0,404.13 H 553.026 V 0 H 0 Z"
         id="path16"
         inkscape:connector-curvature="0" /></clipPath></defs><sodipodi:namedview
     pagecolor="#ffffff"
     bordercolor="#666666"
     borderopacity="1"
     objecttolerance="10"
     gridtolerance="10"
     guidetolerance="10"
     inkscape:pageopacity="0"
     inkscape:pageshadow="2"
     inkscape:window-width="1920"
     inkscape:window-height="1052"
     id="namedview4"
     showgrid="false"
     inkscape:zoom="0.43797786"
     inkscape:cx="373.25043"
     inkscape:cy="178.0912"
     inkscape:window-x="0"
     inkscape:window-y="0"
     inkscape:window-maximized="1"
     inkscape:current-layer="g14"
     inkscape:snap-text-baseline="false" /><g
     id="g10"
     inkscape:groupmode="layer"
     inkscape:label="artlas_logo"
     transform="matrix(1.3333333,0,0,-1.3333333,0,538.84)"><g
       id="g12"><g
         id="g14"
         clip-path="url(#clipPath18)"><g
           id="g20"
           transform="translate(552.4658,243.3638)"
           style="fill:#ffffff"><path
             d="m 0,0 -7.42,-14.7 c -8.26,4.62 -16.659,7.28 -22.96,7.28 -5.039,0 -8.68,-1.68 -8.68,-5.6 0,-11.34 39.76,-5.6 39.621,-32.2 0,-15.4 -13.581,-23.52 -30.661,-23.52 -12.179,0 -24.08,3.64 -32.62,10.5 l 7,14.56 c 7.841,-6.02 17.92,-9.38 26.181,-9.38 5.46,0 9.519,1.82 9.519,5.88 0,12.04 -39.059,5.6 -39.059,32.06 0,15.54 13.3,23.52 29.68,23.52 10.36,0 21,-3.08 29.399,-8.4 m -241.179,35.146 h 21.559 V -68.733 h -21.559 z m -11.58,-98.68 c -5.6,-3.219 -12.6,-5.18 -19.6,-5.18 -13.44,0 -23.661,7.7 -23.661,23.24 v 34.86 h -10.499 v 14.84 h 10.499 v 20.72 h 21.42 V 4.226 h 20.44 v -14.98 h -20.44 v -31.079 c 0,-6.301 2.661,-8.821 7.281,-8.681 2.799,0 6.159,0.979 10.08,2.8 z m -90.06,56.54 c 5.179,9.24 13.719,14.28 24.92,14.42 v -20.3 c -15.4,1.4 -24.92,-6.86 -24.92,-19.6 v -36.26 h -21.56 v 75.32 h 21.56 z"
             style="fill:#ffffff;fill-opacity:1;fill-rule:nonzero;stroke:none"
             id="path22"
             inkscape:connector-curvature="0" /></g><g
           id="g24"
           transform="translate(99.7266,194.1299)"><path
             d="m 0,0 -72.675,-58.5 72.868,226 z M 99.409,-88.375 5.077,206.375 c -0.74,2.099 -2.712,3.55 -4.917,3.622 -2.21,0.076 -4.174,-1.252 -4.903,-3.308 L -99.434,-87.963 c -0.753,-2.131 -0.02,-4.551 1.825,-5.975 1.841,-1.422 4.348,-1.506 6.185,-0.211 l 91.617,74.628 91.17,-74.471 c 1.837,-1.445 4.37,-1.556 6.22,-0.262 0.244,0.171 0.465,0.355 0.668,0.558 1.354,1.356 1.834,3.415 1.158,5.321 m 275.979,107.76 c 0,34.439 -25.9,59.639 -60.76,59.639 -35,0 -62.579,-26.46 -62.579,-60.62 0,-33.46 26.18,-58.38 60.76,-58.38 10.779,0 24.639,3.92 32.899,10.08 l -6.3,10.781 c -7.84,-5.74 -18.479,-8.401 -26.599,-8.401 -26.88,0 -47.601,19.46 -47.601,45.92 0,26.88 21.98,48.44 49.42,48.44 29.681,0 47.74,-21 47.74,-47.879 0,-13.721 -5.88,-23.24 -12.04,-23.24 -3.36,0 -5.74,1.82 -5.74,7 v 47.599 h -16.38 v -7.84 c -0.979,1.82 -8.54,9.38 -20.02,9.38 -17.919,0 -29.4,-14.98 -29.4,-33.04 0,-19.46 14.981,-32.48 31.08,-32.48 8.54,0 16.66,3.5 22.12,11.48 l 0.281,-2.099 c 1.819,-7.561 7.839,-10.92 16.379,-10.92 15.68,0 26.74,13.58 26.74,34.58 m 6.038,0.635 c 0,-5.613 -0.605,-11.068 -1.871,-16.289 l -62.834,-195.519 c -0.515,-1.454 -1.906,-2.394 -3.471,-2.34 -1.56,0.05 -2.955,1.077 -3.479,2.564 l -62.5,195.291 0.002,0.001 c -1.267,5.221 -1.939,10.678 -1.939,16.292 0,37.808 30.465,68.457 68.048,68.457 37.581,0 68.044,-30.649 68.044,-68.457 m -54.338,-0.635 c 0,-9.941 -5.739,-18.061 -15.4,-18.061 -9.1,0 -14.98,8.401 -14.98,18.2 0,9.38 5.88,17.08 14.7,17.08 9.66,0 15.68,-7.7 15.68,-17.219"
             style="fill:#57c8d7;fill-opacity:1;fill-rule:nonzero;stroke:none"
             id="path26"
             inkscape:connector-curvature="0" /></g></g></g></g></svg>
